<svg width="1392" height="220" viewBox="0 0 1392 220" fill="none" xmlns="http://www.w3.org/2000/svg">
<path d="M8.096 93.728C7.728 87.104 8.40267 80.9707 10.12 75.328C11.8373 69.6853 14.4747 64.84 18.032 60.792C21.712 56.6213 26.2507 53.3707 31.648 51.04C37.0453 48.7093 43.1787 47.544 50.048 47.544C55.6907 47.544 60.9653 48.4027 65.872 50.12C70.9013 51.7147 75.256 54.1067 78.936 57.296C82.616 60.3627 85.4987 64.2267 87.584 68.888C89.792 73.5493 90.896 78.9467 90.896 85.08C90.896 90.8453 89.976 95.936 88.136 100.352C86.4187 104.768 84.088 108.755 81.144 112.312C78.2 115.747 74.8267 118.875 71.024 121.696C67.2213 124.517 63.296 127.216 59.248 129.792C55.2 132.245 51.152 134.699 47.104 137.152C43.056 139.483 39.3147 141.997 35.88 144.696C32.568 147.395 29.6853 150.339 27.232 153.528C24.9013 156.595 23.368 160.152 22.632 164.2H89.608V178H4.416C5.02933 170.272 6.37867 163.709 8.464 158.312C10.672 152.792 13.432 148.008 16.744 143.96C20.056 139.912 23.7973 136.355 27.968 133.288C32.1387 130.221 36.4933 127.339 41.032 124.64C46.552 121.205 51.3973 118.077 55.568 115.256C59.7387 112.312 63.1733 109.368 65.872 106.424C68.6933 103.48 70.7787 100.291 72.128 96.856C73.6 93.4213 74.336 89.4347 74.336 84.896C74.336 81.3387 73.6613 78.1493 72.312 75.328C70.9627 72.384 69.1227 69.8693 66.792 67.784C64.584 65.6987 61.9467 64.104 58.88 63C55.8133 61.896 52.5627 61.344 49.128 61.344C44.5893 61.344 40.664 62.3253 37.352 64.288C34.1627 66.128 31.5253 68.5813 29.44 71.648C27.3547 74.7147 25.8213 78.2107 24.84 82.136C23.9813 85.9387 23.6133 89.8027 23.736 93.728H8.096ZM126.53 113.784C126.53 118.691 126.653 124.211 126.898 130.344C127.266 136.355 128.248 142.059 129.842 147.456C131.56 152.731 134.258 157.208 137.938 160.888C141.618 164.568 146.77 166.408 153.394 166.408C160.018 166.408 165.17 164.568 168.85 160.888C172.53 157.208 175.168 152.731 176.762 147.456C178.48 142.059 179.461 136.355 179.706 130.344C180.074 124.211 180.258 118.691 180.258 113.784C180.258 110.595 180.197 107.099 180.074 103.296C180.074 99.3707 179.768 95.5067 179.154 91.704C178.664 87.7787 177.866 83.976 176.762 80.296C175.781 76.616 174.248 73.4267 172.162 70.728C170.2 67.9067 167.685 65.6373 164.618 63.92C161.552 62.2027 157.81 61.344 153.394 61.344C148.978 61.344 145.237 62.2027 142.17 63.92C139.104 65.6373 136.528 67.9067 134.442 70.728C132.48 73.4267 130.946 76.616 129.842 80.296C128.861 83.976 128.064 87.7787 127.45 91.704C126.96 95.5067 126.653 99.3707 126.53 103.296C126.53 107.099 126.53 110.595 126.53 113.784ZM109.97 113.968C109.97 109.184 110.093 104.216 110.338 99.064C110.584 93.912 111.197 88.8827 112.178 83.976C113.16 79.0693 114.57 74.408 116.41 69.992C118.25 65.576 120.765 61.712 123.954 58.4C127.144 55.088 131.13 52.4507 135.914 50.488C140.821 48.5253 146.648 47.544 153.394 47.544C160.141 47.544 165.906 48.5253 170.69 50.488C175.597 52.4507 179.645 55.088 182.834 58.4C186.024 61.712 188.538 65.576 190.378 69.992C192.218 74.408 193.629 79.0693 194.61 83.976C195.592 88.8827 196.205 93.912 196.45 99.064C196.696 104.216 196.818 109.184 196.818 113.968C196.818 118.752 196.696 123.72 196.45 128.872C196.205 134.024 195.592 139.053 194.61 143.96C193.629 148.867 192.218 153.528 190.378 157.944C188.538 162.237 186.024 166.04 182.834 169.352C179.645 172.664 175.658 175.301 170.874 177.264C166.09 179.104 160.264 180.024 153.394 180.024C146.648 180.024 140.821 179.104 135.914 177.264C131.13 175.301 127.144 172.664 123.954 169.352C120.765 166.04 118.25 162.237 116.41 157.944C114.57 153.528 113.16 148.867 112.178 143.96C111.197 139.053 110.584 134.024 110.338 128.872C110.093 123.72 109.97 118.752 109.97 113.968ZM212.58 93.728C212.212 87.104 212.887 80.9707 214.604 75.328C216.322 69.6853 218.959 64.84 222.516 60.792C226.196 56.6213 230.735 53.3707 236.132 51.04C241.53 48.7093 247.663 47.544 254.532 47.544C260.175 47.544 265.45 48.4027 270.356 50.12C275.386 51.7147 279.74 54.1067 283.42 57.296C287.1 60.3627 289.983 64.2267 292.068 68.888C294.276 73.5493 295.38 78.9467 295.38 85.08C295.38 90.8453 294.46 95.936 292.62 100.352C290.903 104.768 288.572 108.755 285.628 112.312C282.684 115.747 279.311 118.875 275.508 121.696C271.706 124.517 267.78 127.216 263.732 129.792C259.684 132.245 255.636 134.699 251.588 137.152C247.54 139.483 243.799 141.997 240.364 144.696C237.052 147.395 234.17 150.339 231.716 153.528C229.386 156.595 227.852 160.152 227.116 164.2H294.092V178H208.9C209.514 170.272 210.863 163.709 212.948 158.312C215.156 152.792 217.916 148.008 221.228 143.96C224.54 139.912 228.282 136.355 232.452 133.288C236.623 130.221 240.978 127.339 245.516 124.64C251.036 121.205 255.882 118.077 260.052 115.256C264.223 112.312 267.658 109.368 270.356 106.424C273.178 103.48 275.263 100.291 276.612 96.856C278.084 93.4213 278.82 89.4347 278.82 84.896C278.82 81.3387 278.146 78.1493 276.796 75.328C275.447 72.384 273.607 69.8693 271.276 67.784C269.068 65.6987 266.431 64.104 263.364 63C260.298 61.896 257.047 61.344 253.612 61.344C249.074 61.344 245.148 62.3253 241.836 64.288C238.647 66.128 236.01 68.5813 233.924 71.648C231.839 74.7147 230.306 78.2107 229.324 82.136C228.466 85.9387 228.098 89.8027 228.22 93.728H212.58ZM331.015 113.784C331.015 118.691 331.137 124.211 331.383 130.344C331.751 136.355 332.732 142.059 334.327 147.456C336.044 152.731 338.743 157.208 342.423 160.888C346.103 164.568 351.255 166.408 357.879 166.408C364.503 166.408 369.655 164.568 373.335 160.888C377.015 157.208 379.652 152.731 381.247 147.456C382.964 142.059 383.945 136.355 384.191 130.344C384.559 124.211 384.743 118.691 384.743 113.784C384.743 110.595 384.681 107.099 384.559 103.296C384.559 99.3707 384.252 95.5067 383.639 91.704C383.148 87.7787 382.351 83.976 381.247 80.296C380.265 76.616 378.732 73.4267 376.647 70.728C374.684 67.9067 372.169 65.6373 369.103 63.92C366.036 62.2027 362.295 61.344 357.879 61.344C353.463 61.344 349.721 62.2027 346.655 63.92C343.588 65.6373 341.012 67.9067 338.927 70.728C336.964 73.4267 335.431 76.616 334.327 80.296C333.345 83.976 332.548 87.7787 331.935 91.704C331.444 95.5067 331.137 99.3707 331.015 103.296C331.015 107.099 331.015 110.595 331.015 113.784ZM314.455 113.968C314.455 109.184 314.577 104.216 314.823 99.064C315.068 93.912 315.681 88.8827 316.663 83.976C317.644 79.0693 319.055 74.408 320.895 69.992C322.735 65.576 325.249 61.712 328.439 58.4C331.628 55.088 335.615 52.4507 340.399 50.488C345.305 48.5253 351.132 47.544 357.879 47.544C364.625 47.544 370.391 48.5253 375.175 50.488C380.081 52.4507 384.129 55.088 387.319 58.4C390.508 61.712 393.023 65.576 394.863 69.992C396.703 74.408 398.113 79.0693 399.095 83.976C400.076 88.8827 400.689 93.912 400.935 99.064C401.18 104.216 401.303 109.184 401.303 113.968C401.303 118.752 401.18 123.72 400.935 128.872C400.689 134.024 400.076 139.053 399.095 143.96C398.113 148.867 396.703 153.528 394.863 157.944C393.023 162.237 390.508 166.04 387.319 169.352C384.129 172.664 380.143 175.301 375.359 177.264C370.575 179.104 364.748 180.024 357.879 180.024C351.132 180.024 345.305 179.104 340.399 177.264C335.615 175.301 331.628 172.664 328.439 169.352C325.249 166.04 322.735 162.237 320.895 157.944C319.055 153.528 317.644 148.867 316.663 143.96C315.681 139.053 315.068 134.024 314.823 128.872C314.577 123.72 314.455 118.752 314.455 113.968Z" fill="white" fill-opacity="0.04"/>
<rect x="431" y="102" width="87" height="16" fill="white" fill-opacity="0.04"/>
<rect x="539" y="102" width="87" height="16" fill="white" fill-opacity="0.04"/>
<rect x="647" y="102" width="87" height="16" fill="white" fill-opacity="0.04"/>
<rect x="755" y="102" width="87" height="16" fill="white" fill-opacity="0.04"/>
<rect x="863" y="102" width="87" height="16" fill="white" fill-opacity="0.04"/>
<rect x="971" y="102" width="87" height="16" fill="white" fill-opacity="0.04"/>
<rect x="1079" y="102" width="87" height="16" fill="white" fill-opacity="0.04"/>
<rect x="1187" y="102" width="87" height="16" fill="white" fill-opacity="0.04"/>
<rect x="1295" y="102" width="87" height="16" fill="white" fill-opacity="0.04"/>
</svg>
