<?xml version="1.0" encoding="UTF-8"?> <svg xmlns="http://www.w3.org/2000/svg" id="dot-a" fill="none"><defs></defs><path d="M 18.86 1.316 L 14.552 1.316 L 8.036 21.024 L 6.706 21.024 L 13.621 0.024 L 19.791 0.024 L 26.706 21.024 L 25.323 21.024 L 18.86 1.316 Z M 15.882 3.443 L 17.424 3.443 L 20.616 13.27 L 12.69 13.27 L 15.882 3.443 Z M 18.86 11.978 C 18.772 11.691 18.63 11.26 18.435 10.685 C 18.24 10.111 18.027 9.474 17.796 8.774 C 17.566 8.056 17.353 7.347 17.158 6.647 C 16.963 5.929 16.821 5.292 16.733 4.735 L 16.573 4.735 C 16.484 5.274 16.343 5.902 16.147 6.62 C 15.97 7.32 15.766 8.029 15.536 8.747 C 15.305 9.447 15.093 10.093 14.897 10.685 C 14.702 11.26 14.561 11.691 14.472 11.978 L 18.86 11.978 Z M 20.19 16.097 L 13.169 16.097 L 11.52 21.024 L 10.19 21.024 L 12.265 14.805 L 21.121 14.805 L 23.116 21.024 L 21.786 21.024 L 20.19 16.097 Z" style="fill: rgb(255, 85, 85);"></path><path d="M 3.223 16.024 L 4.706 16.024 L 4.706 21.024 L 3.223 21.024 L 3.223 16.024 Z M -0.294 16.024 L 1.189 16.024 L 1.189 21.024 L -0.294 21.024 L -0.294 16.024 Z" style="fill: rgb(255, 96, 96);"></path></svg> 