<?xml version="1.0" encoding="UTF-8"?> <svg xmlns="http://www.w3.org/2000/svg" id="irror" fill="none"><defs></defs><path d="M 82.109 12.362 C 83.18 11.967 84.01 11.536 84.599 11.07 C 85.206 10.603 85.625 10.056 85.857 9.427 C 86.107 8.799 86.232 8.063 86.232 7.22 C 86.232 6.215 85.991 5.344 85.509 4.608 C 85.045 3.872 84.402 3.307 83.581 2.912 C 82.76 2.499 81.815 2.293 80.744 2.293 L 73.194 2.293 L 73.194 22 L 71.909 22 L 71.909 1 L 80.744 1 C 82.082 1 83.26 1.261 84.278 1.781 C 85.295 2.302 86.089 3.029 86.66 3.962 C 87.231 4.877 87.517 5.963 87.517 7.22 C 87.517 8.853 87.205 10.136 86.58 11.07 C 85.973 11.985 85.099 12.649 83.956 13.062 L 88.909 22 L 87.383 22 L 82.109 12.362 Z M 75.443 3.8 L 79.833 3.8 C 81.047 3.8 82.02 4.132 82.752 4.797 C 83.483 5.443 83.849 6.331 83.849 7.462 C 83.849 8.7 83.483 9.661 82.752 10.343 C 82.038 11.025 81.074 11.366 79.86 11.366 L 75.443 11.366 L 75.443 3.8 Z M 79.86 10.074 C 80.681 10.074 81.333 9.849 81.815 9.4 C 82.314 8.934 82.564 8.288 82.564 7.462 C 82.564 6.708 82.305 6.125 81.788 5.712 C 81.288 5.299 80.637 5.093 79.833 5.093 L 76.728 5.093 L 76.728 10.074 L 79.86 10.074 Z M 79.432 13.924 L 76.701 13.924 L 76.701 22 L 75.416 22 L 75.416 12.631 L 80.262 12.631 L 84.545 22 L 83.126 22 L 79.432 13.924 Z M 58.448 22 C 56.54 22 54.871 21.554 53.44 20.661 C 52.009 19.767 50.896 18.499 50.101 16.856 C 49.306 15.194 48.909 13.229 48.909 10.96 C 48.909 8.745 49.306 6.816 50.101 5.172 C 50.896 3.529 52.009 2.26 53.44 1.367 C 54.871 0.456 56.54 0 58.448 0 C 60.356 0 62.017 0.456 63.43 1.367 C 64.861 2.278 65.965 3.555 66.743 5.199 C 67.52 6.842 67.909 8.763 67.909 10.96 C 67.909 13.229 67.52 15.194 66.743 16.856 C 65.965 18.499 64.861 19.767 63.43 20.661 C 62.017 21.554 60.356 22 58.448 22 Z M 58.448 20.741 C 60.127 20.741 61.575 20.339 62.794 19.535 C 64.013 18.731 64.958 17.597 65.63 16.132 C 66.301 14.667 66.637 12.943 66.637 10.96 C 66.637 9.031 66.301 7.343 65.63 5.896 C 64.958 4.449 64.013 3.323 62.794 2.519 C 61.575 1.698 60.127 1.287 58.448 1.287 C 56.77 1.287 55.313 1.689 54.076 2.493 C 52.839 3.296 51.876 4.422 51.187 5.869 C 50.516 7.316 50.181 9.013 50.181 10.96 C 50.181 12.943 50.516 14.667 51.187 16.132 C 51.876 17.597 52.839 18.731 54.076 19.535 C 55.313 20.339 56.77 20.741 58.448 20.741 Z M 58.448 19.106 C 57.388 19.106 56.408 18.794 55.507 18.169 C 54.624 17.543 53.917 16.632 53.387 15.435 C 52.857 14.221 52.592 12.729 52.592 10.96 C 52.592 9.174 52.875 7.691 53.44 6.512 C 54.005 5.315 54.73 4.422 55.613 3.832 C 56.514 3.225 57.459 2.921 58.448 2.921 C 59.508 2.921 60.471 3.225 61.337 3.832 C 62.22 4.422 62.918 5.315 63.43 6.512 C 63.96 7.691 64.225 9.174 64.225 10.96 C 64.225 12.729 63.951 14.221 63.404 15.435 C 62.856 16.632 62.141 17.543 61.257 18.169 C 60.392 18.794 59.455 19.106 58.448 19.106 Z M 58.448 17.82 C 59.279 17.82 60.029 17.552 60.701 17.016 C 61.39 16.48 61.937 15.703 62.344 14.685 C 62.75 13.649 62.953 12.407 62.953 10.96 C 62.953 8.781 62.529 7.11 61.681 5.949 C 60.833 4.788 59.756 4.207 58.448 4.207 C 57.636 4.207 56.876 4.467 56.169 4.985 C 55.48 5.503 54.924 6.262 54.5 7.262 C 54.076 8.263 53.864 9.495 53.864 10.96 C 53.864 12.407 54.058 13.649 54.447 14.685 C 54.853 15.703 55.401 16.48 56.09 17.016 C 56.797 17.552 57.583 17.82 58.448 17.82 Z M 40.109 12.362 C 41.179 11.967 42.009 11.536 42.598 11.07 C 43.205 10.603 43.625 10.056 43.857 9.427 C 44.106 8.799 44.231 8.063 44.231 7.22 C 44.231 6.215 43.99 5.344 43.509 4.608 C 43.045 3.872 42.402 3.307 41.581 2.912 C 40.76 2.499 39.814 2.293 38.743 2.293 L 31.194 2.293 L 31.194 22 L 29.909 22 L 29.909 1 L 38.743 1 C 40.082 1 41.26 1.261 42.277 1.781 C 43.294 2.302 44.089 3.029 44.66 3.962 C 45.231 4.877 45.516 5.963 45.516 7.22 C 45.516 8.853 45.204 10.136 44.579 11.07 C 43.973 11.985 43.098 12.649 41.956 13.062 L 46.909 22 L 45.383 22 L 40.109 12.362 Z M 33.442 3.8 L 37.833 3.8 C 39.047 3.8 40.019 4.132 40.751 4.797 C 41.483 5.443 41.849 6.331 41.849 7.462 C 41.849 8.7 41.483 9.661 40.751 10.343 C 40.037 11.025 39.073 11.366 37.86 11.366 L 33.442 11.366 L 33.442 3.8 Z M 37.86 10.074 C 38.681 10.074 39.332 9.849 39.814 9.4 C 40.314 8.934 40.564 8.288 40.564 7.462 C 40.564 6.708 40.305 6.125 39.787 5.712 C 39.288 5.299 38.636 5.093 37.833 5.093 L 34.727 5.093 L 34.727 10.074 L 37.86 10.074 Z M 37.431 13.924 L 34.701 13.924 L 34.701 22 L 33.416 22 L 33.416 12.631 L 38.261 12.631 L 42.545 22 L 41.126 22 L 37.431 13.924 Z M 20.109 12.362 C 21.179 11.967 22.009 11.536 22.598 11.07 C 23.205 10.603 23.625 10.056 23.857 9.427 C 24.106 8.799 24.231 8.063 24.231 7.22 C 24.231 6.215 23.99 5.344 23.509 4.608 C 23.045 3.872 22.402 3.307 21.581 2.912 C 20.76 2.499 19.814 2.293 18.743 2.293 L 11.194 2.293 L 11.194 22 L 9.909 22 L 9.909 1 L 18.743 1 C 20.082 1 21.26 1.261 22.277 1.781 C 23.294 2.302 24.089 3.029 24.66 3.962 C 25.231 4.877 25.516 5.963 25.516 7.22 C 25.516 8.853 25.204 10.136 24.579 11.07 C 23.973 11.985 23.098 12.649 21.956 13.062 L 26.909 22 L 25.383 22 L 20.109 12.362 Z M 13.442 3.8 L 17.833 3.8 C 19.047 3.8 20.019 4.132 20.751 4.797 C 21.483 5.443 21.849 6.331 21.849 7.462 C 21.849 8.7 21.483 9.661 20.751 10.343 C 20.037 11.025 19.073 11.366 17.86 11.366 L 13.442 11.366 L 13.442 3.8 Z M 17.86 10.074 C 18.681 10.074 19.332 9.849 19.814 9.4 C 20.314 8.934 20.564 8.288 20.564 7.462 C 20.564 6.708 20.305 6.125 19.787 5.712 C 19.288 5.299 18.636 5.093 17.833 5.093 L 14.727 5.093 L 14.727 10.074 L 17.86 10.074 Z M 17.431 13.924 L 14.701 13.924 L 14.701 22 L 13.416 22 L 13.416 12.631 L 18.261 12.631 L 22.545 22 L 21.126 22 L 17.431 13.924 Z M 3.632 1 L 4.909 1 L 4.909 22 L 3.632 22 L 3.632 1 Z M -0.091 1 L 1.185 1 L 1.185 22 L -0.091 22 L -0.091 1 Z" style="fill: rgb(255, 57, 57);"></path></svg> 