<?xml version="1.0" encoding="UTF-8"?> <svg xmlns="http://www.w3.org/2000/svg" width="51" height="21" viewBox="0 0 51 21" fill="none"><path d="M43.1543 1.29231H38.8457L32.3298 21H31L37.9149 0H44.0851L51 21H49.617L43.1543 1.29231ZM40.1755 3.41923H41.7181L44.9096 13.2462H36.984L40.1755 3.41923ZM43.1543 11.9538C43.0656 11.6667 42.9238 11.2359 42.7287 10.6615C42.5337 10.0872 42.3209 9.45 42.0904 8.75C41.8599 8.03205 41.6472 7.32308 41.4521 6.62308C41.2571 5.90513 41.1152 5.26795 41.0266 4.71154H40.867C40.7784 5.25 40.6365 5.8782 40.4415 6.59615C40.2642 7.29615 40.0603 8.00513 39.8298 8.72308C39.5993 9.42308 39.3865 10.0692 39.1915 10.6615C38.9965 11.2359 38.8546 11.6667 38.766 11.9538H43.1543ZM44.484 16.0731H37.4628L35.8138 21H34.484L36.5585 14.7808H45.4149L47.4096 21H46.0798L44.484 16.0731Z" fill="white"></path><path d="M27.5174 16H29V21H27.5174V16ZM24 16H25.4826V21H24V16Z" fill="white"></path><path d="M19.6977 1.29231H14.8682L11.124 17.1769H9.79457L5.83333 1.29231H1.30233V21H0V0H6.86434L9.93023 12.2769C10.0388 12.6718 10.1202 13.1385 10.1744 13.6769C10.2468 14.2154 10.301 14.691 10.3372 15.1038C10.3734 15.5167 10.4005 15.75 10.4186 15.8038H10.5C10.5181 15.75 10.5452 15.5167 10.5814 15.1038C10.6176 14.6731 10.6628 14.1974 10.7171 13.6769C10.7713 13.1385 10.8437 12.6808 10.9341 12.3038L13.8372 0H21V21H19.6977V1.29231ZM16.469 12.6538C16.469 12.2769 16.478 11.7833 16.4961 11.1731C16.5142 10.5449 16.5413 9.88974 16.5775 9.20769C16.6137 8.50769 16.6408 7.83462 16.6589 7.18846C16.6951 6.52436 16.7222 5.95897 16.7403 5.49231C16.7765 5.00769 16.7946 4.69359 16.7946 4.55H16.6318C16.6318 4.71154 16.5956 5.00769 16.5233 5.43846C16.469 5.85128 16.3966 6.3359 16.3062 6.89231C16.2339 7.43077 16.1434 7.96923 16.0349 8.50769C15.9444 9.0282 15.854 9.45897 15.7636 9.8L12.9147 21H7.92248L4.88372 9.82692C4.81137 9.57564 4.72997 9.21667 4.63953 8.75C4.5491 8.26538 4.45866 7.75385 4.36822 7.21538C4.27778 6.65897 4.19638 6.14744 4.12403 5.68077C4.05168 5.19615 3.99742 4.81923 3.96124 4.55H3.79845C3.81654 4.71154 3.83463 5.02564 3.85271 5.49231C3.88889 5.95897 3.91602 6.51539 3.93411 7.16154C3.97028 7.78974 4.00646 8.45385 4.04264 9.15385C4.07881 9.85385 4.10594 10.5179 4.12403 11.1462C4.14212 11.7744 4.15116 12.3038 4.15116 12.7346V21H2.84884V3.15H4.42248L8.92636 19.7077H11.8837L16.0891 3.15H17.7713V21H16.469V12.6538Z" fill="white"></path></svg> 