<?xml version="1.0" encoding="UTF-8"?> <svg xmlns="http://www.w3.org/2000/svg" width="191" height="22" viewbox="0 0 191 22" fill="none"><path d="M179.944 12.0585C178.296 11.4868 177.046 10.7544 176.194 9.86115C175.361 8.96793 174.944 7.74421 174.944 6.19001C174.944 5.06456 175.25 4.03735 175.861 3.1084C176.472 2.16159 177.352 1.41129 178.5 0.857491C179.648 0.285831 181.028 0 182.639 0C186.583 0 189.176 1.38449 190.417 4.15347L189.361 4.87698C188.62 3.44783 187.685 2.49208 186.556 2.00975C185.444 1.52741 184.139 1.28624 182.639 1.28624C181.324 1.28624 180.185 1.50954 179.222 1.95615C178.278 2.3849 177.546 2.97442 177.028 3.72473C176.528 4.45717 176.278 5.27893 176.278 6.19001C176.278 7.44052 176.63 8.41413 177.333 9.11084C178.037 9.80755 179.056 10.3881 180.389 10.8526L183.528 11.9245C184.935 12.4068 185.889 12.9695 186.389 13.6127C186.889 14.2379 187.139 14.9525 187.139 15.7564C187.139 16.7211 186.796 17.525 186.111 18.1681C185.426 18.8112 184.287 19.1328 182.694 19.1328C181.528 19.1328 180.407 18.7844 179.333 18.0877C178.259 17.3731 177.37 16.2745 176.667 14.7917L177.806 14.0414C178.287 15.2383 178.981 16.1762 179.889 16.8551C180.796 17.516 181.731 17.8465 182.694 17.8465C183.769 17.8465 184.556 17.659 185.056 17.2838C185.556 16.9086 185.806 16.3995 185.806 15.7564C185.806 15.1847 185.602 14.6935 185.194 14.2826C184.787 13.8538 184.083 13.4698 183.083 13.1303L179.944 12.0585ZM181.75 9.13764C180.546 8.74462 179.704 8.27121 179.222 7.71742C178.741 7.16362 178.5 6.56517 178.5 5.92205C178.5 5.36825 178.63 4.85018 178.889 4.36785C179.167 3.88551 179.62 3.49249 180.25 3.18879C180.898 2.8851 181.759 2.73325 182.833 2.73325C183.926 2.73325 184.907 3.00122 185.778 3.53715C186.648 4.07308 187.343 4.86805 187.861 5.92205L186.75 6.69915C186.417 5.84166 185.898 5.18067 185.194 4.7162C184.491 4.25173 183.704 4.01949 182.833 4.01949C181.759 4.01949 180.991 4.20706 180.528 4.58222C180.065 4.93951 179.833 5.38612 179.833 5.92205C179.833 6.74381 180.611 7.40479 182.167 7.90499L185.611 9.00365C187.259 9.52172 188.565 10.281 189.528 11.2814C190.509 12.2818 191 13.5948 191 15.2205C191 17.3821 190.278 19.0524 188.833 20.2314C187.407 21.4105 185.37 22 182.722 22C180.481 22 178.62 21.5177 177.139 20.553C175.657 19.5883 174.611 18.2485 174 16.5335L175 15.8904C175.815 17.659 176.87 18.9095 178.167 19.6419C179.463 20.3743 180.981 20.7406 182.722 20.7406C184.926 20.7406 186.63 20.2672 187.833 19.3203C189.056 18.3735 189.667 17.0069 189.667 15.2205C189.667 13.8985 189.25 12.8445 188.417 12.0585C187.602 11.2724 186.528 10.665 185.194 10.2363L181.75 9.13764Z" fill="white"></path><path d="M169.723 1H171V22H169.723V1ZM166 1H167.277V22H166V1Z" fill="white"></path><path d="M150.65 1L153.987 7.3L157.323 1H158.749L153.987 10.0192L149.224 1H150.65ZM155.305 11.1231L161.17 1H162.677L156.785 11.15L163 22H161.52L155.305 11.1231ZM151.135 11.3385L145.188 1H146.695L152.641 11.3385L146.507 22H145L151.135 11.3385ZM153.906 15.35L150.327 22H148.848L153.933 12.6038L158.83 22H157.404L153.906 15.35Z" fill="white"></path><path d="M137.154 2.29231H132.846L126.33 22H125L131.915 1H138.085L145 22H143.617L137.154 2.29231ZM134.176 4.41923H135.718L138.91 14.2462H130.984L134.176 4.41923ZM137.154 12.9538C137.066 12.6667 136.924 12.2359 136.729 11.6615C136.534 11.0872 136.321 10.45 136.09 9.75C135.86 9.03205 135.647 8.32308 135.452 7.62308C135.257 6.90513 135.115 6.26795 135.027 5.71154H134.867C134.778 6.25 134.637 6.8782 134.441 7.59615C134.264 8.29615 134.06 9.00513 133.83 9.72308C133.599 10.4231 133.387 11.0692 133.191 11.6615C132.996 12.2359 132.855 12.6667 132.766 12.9538H137.154ZM138.484 17.0731H131.463L129.814 22H128.484L130.559 15.7808H139.415L141.41 22H140.08L138.484 17.0731Z" fill="white"></path><path d="M121.517 17H123V22H121.517V17ZM118 17H119.483V22H118V17Z" fill="white"></path><path d="M108.2 12.3615C109.271 11.9667 110.101 11.5359 110.69 11.0692C111.297 10.6026 111.716 10.0551 111.948 9.42692C112.198 8.79872 112.323 8.06282 112.323 7.21923C112.323 6.2141 112.082 5.34359 111.6 4.60769C111.136 3.8718 110.493 3.30641 109.672 2.91154C108.851 2.49872 107.906 2.29231 106.835 2.29231H99.285V22H98V1H106.835C108.173 1 109.351 1.26026 110.369 1.78077C111.386 2.30128 112.18 3.0282 112.751 3.96154C113.322 4.87692 113.608 5.96282 113.608 7.21923C113.608 8.85256 113.296 10.1359 112.671 11.0692C112.064 11.9846 111.19 12.6487 110.047 13.0615L115 22H113.474L108.2 12.3615ZM101.534 3.8H105.924C107.138 3.8 108.111 4.13205 108.843 4.79615C109.574 5.44231 109.94 6.33077 109.94 7.46154C109.94 8.7 109.574 9.66026 108.843 10.3423C108.129 11.0244 107.165 11.3654 105.951 11.3654H101.534V3.8ZM105.951 10.0731C106.772 10.0731 107.424 9.84872 107.906 9.4C108.405 8.93333 108.655 8.28718 108.655 7.46154C108.655 6.70769 108.396 6.12436 107.879 5.71154C107.379 5.29872 106.728 5.09231 105.924 5.09231H102.819V10.0731H105.951ZM105.523 13.9231H102.792V22H101.507V12.6308H106.353L110.636 22H109.217L105.523 13.9231Z" fill="white"></path><path d="M84.5398 22C82.6318 22 80.9623 21.5534 79.5314 20.6602C78.1004 19.767 76.9874 18.4986 76.1925 16.8551C75.3975 15.1937 75 13.2286 75 10.9598C75 8.74462 75.3975 6.81527 76.1925 5.17174C76.9874 3.52822 78.1004 2.25985 79.5314 1.36663C80.9623 0.455543 82.6318 0 84.5398 0C86.4477 0 88.1083 0.455543 89.5216 1.36663C90.9526 2.27771 92.0567 3.55501 92.834 5.19854C93.6113 6.84206 94 8.76248 94 10.9598C94 13.2286 93.6113 15.1937 92.834 16.8551C92.0567 18.4986 90.9526 19.767 89.5216 20.6602C88.1083 21.5534 86.4477 22 84.5398 22ZM84.5398 20.7406C86.218 20.7406 87.6667 20.3386 88.8856 19.5347C90.1046 18.7308 91.0497 17.5964 91.7211 16.1315C92.3924 14.6667 92.728 12.9428 92.728 10.9598C92.728 9.03045 92.3924 7.34227 91.7211 5.89525C91.0497 4.44823 90.1046 3.32278 88.8856 2.51888C87.6667 1.69712 86.218 1.28624 84.5398 1.28624C82.8615 1.28624 81.404 1.68819 80.1674 2.49208C78.9307 3.29598 77.9679 4.42144 77.2789 5.86845C76.6076 7.31547 76.272 9.01259 76.272 10.9598C76.272 12.9428 76.6076 14.6667 77.2789 16.1315C77.9679 17.5964 78.9307 18.7308 80.1674 19.5347C81.404 20.3386 82.8615 20.7406 84.5398 20.7406ZM84.5398 19.106C83.4798 19.106 82.4993 18.7933 81.5983 18.1681C80.715 17.5428 80.0084 16.6318 79.4784 15.4348C78.9484 14.2201 78.6834 12.7284 78.6834 10.9598C78.6834 9.17337 78.9661 7.69062 79.5314 6.51157C80.0967 5.31466 80.821 4.42144 81.7043 3.83191C82.6053 3.22452 83.5504 2.92083 84.5398 2.92083C85.5997 2.92083 86.5625 3.22452 87.4282 3.83191C88.3115 4.42144 89.0093 5.31466 89.5216 6.51157C90.0516 7.69062 90.3166 9.17337 90.3166 10.9598C90.3166 12.7284 90.0428 14.2201 89.4951 15.4348C88.9475 16.6318 88.232 17.5428 87.3487 18.1681C86.483 18.7933 85.5467 19.106 84.5398 19.106ZM84.5398 17.8197C85.3701 17.8197 86.1209 17.5518 86.7922 17.0158C87.4812 16.4799 88.0288 15.7028 88.4351 14.6845C88.8415 13.6484 89.0446 12.4068 89.0446 10.9598C89.0446 8.78035 88.6206 7.11003 87.7727 5.94884C86.9247 4.78766 85.8471 4.20706 84.5398 4.20706C83.7271 4.20706 82.9675 4.4661 82.2608 4.98417C81.5718 5.50223 81.0153 6.26147 80.5914 7.26188C80.1674 8.26228 79.9554 9.49493 79.9554 10.9598C79.9554 12.4068 80.1497 13.6484 80.5384 14.6845C80.9447 15.7028 81.4923 16.4799 82.1813 17.0158C82.888 17.5518 83.6741 17.8197 84.5398 17.8197Z" fill="white"></path><path d="M66.2 12.3615C67.2709 11.9667 68.1008 11.5359 68.6898 11.0692C69.2966 10.6026 69.716 10.0551 69.948 9.42692C70.1979 8.79872 70.3228 8.06282 70.3228 7.21923C70.3228 6.2141 70.0819 5.34359 69.6 4.60769C69.136 3.8718 68.4934 3.30641 67.6724 2.91154C66.8514 2.49872 65.9055 2.29231 64.8346 2.29231H57.285V22H56V1H64.8346C66.1732 1 67.3512 1.26026 68.3685 1.78077C69.3858 2.30128 70.1801 3.0282 70.7512 3.96154C71.3223 4.87692 71.6079 5.96282 71.6079 7.21923C71.6079 8.85256 71.2955 10.1359 70.6709 11.0692C70.064 11.9846 69.1895 12.6487 68.0472 13.0615L73 22H71.474L66.2 12.3615ZM59.5339 3.8H63.9244C65.1381 3.8 66.1108 4.13205 66.8425 4.79615C67.5743 5.44231 67.9402 6.33077 67.9402 7.46154C67.9402 8.7 67.5743 9.66026 66.8425 10.3423C66.1286 11.0244 65.1648 11.3654 63.9512 11.3654H59.5339V3.8ZM63.9512 10.0731C64.7722 10.0731 65.4236 9.84872 65.9055 9.4C66.4053 8.93333 66.6551 8.28718 66.6551 7.46154C66.6551 6.70769 66.3963 6.12436 65.8787 5.71154C65.379 5.29872 64.7276 5.09231 63.9244 5.09231H60.8189V10.0731H63.9512ZM63.5228 13.9231H60.7921V22H59.5071V12.6308H64.3528L68.6362 22H67.2173L63.5228 13.9231Z" fill="white"></path><path d="M46.2 12.3615C47.2709 11.9667 48.1008 11.5359 48.6898 11.0692C49.2966 10.6026 49.716 10.0551 49.948 9.42692C50.1979 8.79872 50.3228 8.06282 50.3228 7.21923C50.3228 6.2141 50.0819 5.34359 49.6 4.60769C49.136 3.8718 48.4934 3.30641 47.6724 2.91154C46.8514 2.49872 45.9055 2.29231 44.8346 2.29231H37.285V22H36V1H44.8346C46.1732 1 47.3512 1.26026 48.3685 1.78077C49.3858 2.30128 50.1801 3.0282 50.7512 3.96154C51.3223 4.87692 51.6079 5.96282 51.6079 7.21923C51.6079 8.85256 51.2955 10.1359 50.6709 11.0692C50.064 11.9846 49.1895 12.6487 48.0472 13.0615L53 22H51.474L46.2 12.3615ZM39.5339 3.8H43.9244C45.1381 3.8 46.1108 4.13205 46.8425 4.79615C47.5743 5.44231 47.9402 6.33077 47.9402 7.46154C47.9402 8.7 47.5743 9.66026 46.8425 10.3423C46.1286 11.0244 45.1648 11.3654 43.9512 11.3654H39.5339V3.8ZM43.9512 10.0731C44.7722 10.0731 45.4236 9.84872 45.9055 9.4C46.4052 8.93333 46.6551 8.28718 46.6551 7.46154C46.6551 6.70769 46.3963 6.12436 45.8787 5.71154C45.379 5.29872 44.7276 5.09231 43.9244 5.09231H40.8189V10.0731H43.9512ZM43.5228 13.9231H40.7921V22H39.5071V12.6308H44.3528L48.6362 22H47.2173L43.5228 13.9231Z" fill="white"></path><path d="M29.7234 1H31V22H29.7234V1ZM26 1H27.2766V22H26V1Z" fill="white"></path><path d="M19.6977 2.29231H14.8682L11.124 18.1769H9.79457L5.83333 2.29231H1.30233V22H0V1H6.86434L9.93023 13.2769C10.0388 13.6718 10.1202 14.1385 10.1744 14.6769C10.2468 15.2154 10.301 15.691 10.3372 16.1038C10.3734 16.5167 10.4005 16.75 10.4186 16.8038H10.5C10.5181 16.75 10.5452 16.5167 10.5814 16.1038C10.6176 15.6731 10.6628 15.1974 10.7171 14.6769C10.7713 14.1385 10.8437 13.6808 10.9341 13.3038L13.8372 1H21V22H19.6977V2.29231ZM16.469 13.6538C16.469 13.2769 16.478 12.7833 16.4961 12.1731C16.5142 11.5449 16.5413 10.8897 16.5775 10.2077C16.6137 9.50769 16.6408 8.83462 16.6589 8.18846C16.6951 7.52436 16.7222 6.95897 16.7403 6.49231C16.7765 6.00769 16.7946 5.69359 16.7946 5.55H16.6318C16.6318 5.71154 16.5956 6.00769 16.5233 6.43846C16.469 6.85128 16.3966 7.3359 16.3062 7.89231C16.2339 8.43077 16.1434 8.96923 16.0349 9.50769C15.9444 10.0282 15.854 10.459 15.7636 10.8L12.9147 22H7.92248L4.88372 10.8269C4.81137 10.5756 4.72997 10.2167 4.63953 9.75C4.5491 9.26538 4.45866 8.75385 4.36822 8.21538C4.27778 7.65897 4.19638 7.14744 4.12403 6.68077C4.05168 6.19615 3.99742 5.81923 3.96124 5.55H3.79845C3.81654 5.71154 3.83463 6.02564 3.85271 6.49231C3.88889 6.95897 3.91602 7.51539 3.93411 8.16154C3.97028 8.78974 4.00646 9.45385 4.04264 10.1538C4.07881 10.8538 4.10594 11.5179 4.12403 12.1462C4.14212 12.7744 4.15116 13.3038 4.15116 13.7346V22H2.84884V4.15H4.42248L8.92636 20.7077H11.8837L16.0891 4.15H17.7713V22H16.469V13.6538Z" fill="white"></path></svg> 