<?xml version="1.0" encoding="UTF-8"?> <svg xmlns="http://www.w3.org/2000/svg" width="303" height="35" viewBox="0 0 303 35" fill="none"><path d="M285.441 19.1839C282.824 18.2745 280.838 17.1092 279.485 15.6882C278.162 14.2672 277.5 12.3203 277.5 9.84775C277.5 8.05725 277.985 6.42306 278.956 4.94519C279.926 3.4389 281.324 2.24523 283.147 1.36419C284.971 0.454731 287.162 0 289.721 0C295.985 0 300.103 2.2026 302.074 6.6078L300.397 7.75883C299.221 5.48518 297.735 3.96468 295.941 3.19732C294.176 2.42997 292.103 2.04629 289.721 2.04629C287.632 2.04629 285.824 2.40154 284.294 3.11206C282.794 3.79415 281.632 4.73203 280.809 5.9257C280.015 7.09095 279.618 8.39829 279.618 9.84775C279.618 11.8372 280.176 13.3861 281.294 14.4945C282.412 15.6029 284.029 16.5266 286.147 17.2655L291.132 18.9708C293.368 19.7381 294.882 20.6334 295.676 21.6565C296.471 22.6512 296.868 23.7881 296.868 25.067C296.868 26.6017 296.324 27.8806 295.235 28.9038C294.147 29.9269 292.338 30.4385 289.809 30.4385C287.956 30.4385 286.176 29.8843 284.471 28.7759C282.765 27.6391 281.353 25.8912 280.235 23.5323L282.044 22.3386C282.809 24.2428 283.912 25.7349 285.353 26.8149C286.794 27.8664 288.279 28.3922 289.809 28.3922C291.515 28.3922 292.765 28.0938 293.559 27.497C294.353 26.9001 294.75 26.0901 294.75 25.067C294.75 24.1575 294.426 23.376 293.779 22.7223C293.132 22.0402 292.015 21.4291 290.426 20.8892L285.441 19.1839ZM288.309 14.5372C286.397 13.9119 285.059 13.1588 284.294 12.2777C283.529 11.3967 283.147 10.4446 283.147 9.42144C283.147 8.5404 283.353 7.7162 283.765 6.94884C284.206 6.18149 284.926 5.55623 285.926 5.07308C286.956 4.58993 288.324 4.34836 290.029 4.34836C291.765 4.34836 293.324 4.77466 294.706 5.62728C296.088 6.4799 297.191 7.74462 298.015 9.42144L296.25 10.6577C295.721 9.29354 294.897 8.24198 293.779 7.50305C292.662 6.76411 291.412 6.39464 290.029 6.39464C288.324 6.39464 287.103 6.69306 286.368 7.28989C285.632 7.8583 285.265 8.56882 285.265 9.42144C285.265 10.7288 286.5 11.7803 288.971 12.5761L294.441 14.324C297.059 15.1482 299.132 16.3561 300.662 17.9476C302.221 19.5392 303 21.6281 303 24.2144C303 27.6533 301.853 30.3106 299.559 32.1864C297.294 34.0621 294.059 35 289.853 35C286.294 35 283.338 34.2326 280.985 32.6979C278.632 31.1632 276.971 29.0317 276 26.3033L277.588 25.2801C278.882 28.0938 280.559 30.0832 282.618 31.2485C284.676 32.4137 287.088 32.9963 289.853 32.9963C293.353 32.9963 296.059 32.2432 297.971 30.7369C299.912 29.2306 300.882 27.0564 300.882 24.2144C300.882 22.1112 300.221 20.4344 298.897 19.1839C297.603 17.9334 295.897 16.9671 293.779 16.285L288.309 14.5372Z" fill="white"></path><path d="M268.957 2H271V35H268.957V2ZM263 2H265.043V35H263V2Z" fill="white"></path><path d="M239.103 2L244.478 11.9L249.854 2H252.151L244.478 16.1731L236.806 2H239.103ZM246.602 17.9077L256.052 2H258.48L248.987 17.95L259 35H256.616L246.602 17.9077ZM239.883 18.2462L230.303 2H232.731L242.311 18.2462L232.428 35H230L239.883 18.2462ZM244.348 24.55L238.583 35H236.199L244.392 20.2346L252.281 35H249.984L244.348 24.55Z" fill="white"></path><path d="M217.447 4.03077H210.553L200.128 35H198L209.064 2H218.936L230 35H227.787L217.447 4.03077ZM212.681 7.37307H215.149L220.255 22.8154H207.574L212.681 7.37307ZM217.447 20.7846C217.305 20.3333 217.078 19.6564 216.766 18.7538C216.454 17.8513 216.113 16.85 215.745 15.75C215.376 14.6218 215.035 13.5077 214.723 12.4077C214.411 11.2795 214.184 10.2782 214.043 9.40385H213.787C213.645 10.25 213.418 11.2372 213.106 12.3654C212.823 13.4654 212.496 14.5795 212.128 15.7077C211.759 16.8077 211.418 17.8231 211.106 18.7538C210.794 19.6564 210.567 20.3333 210.426 20.7846H217.447ZM219.574 27.2577H208.34L205.702 35H203.574L206.894 25.2269H221.064L224.255 35H222.128L219.574 27.2577Z" fill="white"></path><path d="M192.628 27H195V35H192.628V27ZM187 27H189.372V35H187V27Z" fill="white"></path><path d="M171.2 19.8538C172.901 19.2333 174.219 18.5564 175.154 17.8231C176.118 17.0897 176.784 16.2295 177.153 15.2423C177.55 14.2551 177.748 13.0987 177.748 11.7731C177.748 10.1936 177.365 8.82564 176.6 7.66923C175.863 6.51282 174.843 5.62436 173.539 5.00384C172.235 4.35513 170.732 4.03077 169.031 4.03077H157.041V35H155V2H169.031C171.157 2 173.028 2.40897 174.644 3.22692C176.26 4.04487 177.521 5.18718 178.428 6.65385C179.335 8.09231 179.789 9.79872 179.789 11.7731C179.789 14.3397 179.293 16.3564 178.301 17.8231C177.337 19.2615 175.948 20.3051 174.134 20.9538L182 35H179.576L171.2 19.8538ZM160.613 6.4H167.586C169.513 6.4 171.058 6.92179 172.22 7.96538C173.383 8.98077 173.964 10.3769 173.964 12.1538C173.964 14.1 173.383 15.609 172.22 16.6808C171.087 17.7526 169.556 18.2885 167.628 18.2885H160.613V6.4ZM167.628 16.2577C168.932 16.2577 169.967 15.9051 170.732 15.2C171.526 14.4667 171.923 13.4513 171.923 12.1538C171.923 10.9692 171.512 10.0526 170.69 9.40385C169.896 8.75513 168.861 8.43077 167.586 8.43077H162.654V16.2577H167.628ZM166.948 22.3077H162.611V35H160.57V20.2769H168.266L175.069 35H172.816L166.948 22.3077Z" fill="white"></path><path d="M134.063 35C131.05 35 128.414 34.2895 126.155 32.8685C123.895 31.4474 122.138 29.4296 120.883 26.8149C119.628 24.1717 119 21.0455 119 17.4361C119 13.9119 119.628 10.8425 120.883 8.22777C122.138 5.61307 123.895 3.59521 126.155 2.17418C128.414 0.724727 131.05 0 134.063 0C137.075 0 139.697 0.724727 141.929 2.17418C144.188 3.62363 145.932 5.6557 147.159 8.2704C148.386 10.8851 149 13.9403 149 17.4361C149 21.0455 148.386 24.1717 147.159 26.8149C145.932 29.4296 144.188 31.4474 141.929 32.8685C139.697 34.2895 137.075 35 134.063 35ZM134.063 32.9963C136.713 32.9963 139 32.3569 140.925 31.078C142.849 29.799 144.342 27.9943 145.402 25.6638C146.462 23.3333 146.992 20.5907 146.992 17.4361C146.992 14.3666 146.462 11.6809 145.402 9.37881C144.342 7.07674 142.849 5.28624 140.925 4.00731C139 2.69996 136.713 2.04629 134.063 2.04629C131.413 2.04629 129.112 2.68575 127.159 3.96468C125.206 5.24361 123.686 7.03411 122.598 9.33618C121.538 11.6382 121.008 14.3382 121.008 17.4361C121.008 20.5907 121.538 23.3333 122.598 25.6638C123.686 27.9943 125.206 29.799 127.159 31.078C129.112 32.3569 131.413 32.9963 134.063 32.9963ZM134.063 30.3959C132.389 30.3959 130.841 29.8985 129.418 28.9038C128.024 27.9091 126.908 26.4596 126.071 24.5554C125.234 22.6228 124.816 20.2497 124.816 17.4361C124.816 14.594 125.262 12.2351 126.155 10.3593C127.047 8.45514 128.191 7.03411 129.586 6.09622C131.008 5.12992 132.501 4.64677 134.063 4.64677C135.736 4.64677 137.257 5.12992 138.623 6.09622C140.018 7.03411 141.12 8.45514 141.929 10.3593C142.766 12.2351 143.184 14.594 143.184 17.4361C143.184 20.2497 142.752 22.6228 141.887 24.5554C141.022 26.4596 139.893 27.9091 138.498 28.9038C137.131 29.8985 135.653 30.3959 134.063 30.3959ZM134.063 28.3496C135.374 28.3496 136.559 27.9233 137.619 27.0706C138.707 26.218 139.572 24.9817 140.213 23.3618C140.855 21.7134 141.176 19.7381 141.176 17.4361C141.176 13.9687 140.506 11.3114 139.167 9.46407C137.828 7.61673 136.127 6.69306 134.063 6.69306C132.78 6.69306 131.58 7.10516 130.464 7.92936C129.377 8.75355 128.498 9.96143 127.828 11.553C127.159 13.1445 126.824 15.1056 126.824 17.4361C126.824 19.7381 127.131 21.7134 127.745 23.3618C128.386 24.9817 129.251 26.218 130.339 27.0706C131.455 27.9233 132.696 28.3496 134.063 28.3496Z" fill="white"></path><path d="M105.2 19.8538C106.901 19.2333 108.219 18.5564 109.154 17.8231C110.118 17.0897 110.784 16.2295 111.153 15.2423C111.55 14.2551 111.748 13.0987 111.748 11.7731C111.748 10.1936 111.365 8.82564 110.6 7.66923C109.863 6.51282 108.843 5.62436 107.539 5.00384C106.235 4.35513 104.732 4.03077 103.032 4.03077H91.041V35H89V2H103.032C105.157 2 107.028 2.40897 108.644 3.22692C110.26 4.04487 111.521 5.18718 112.428 6.65385C113.335 8.09231 113.789 9.79872 113.789 11.7731C113.789 14.3397 113.293 16.3564 112.301 17.8231C111.337 19.2615 109.948 20.3051 108.134 20.9538L116 35H113.576L105.2 19.8538ZM94.6126 6.4H101.586C103.513 6.4 105.058 6.92179 106.22 7.96538C107.383 8.98077 107.964 10.3769 107.964 12.1538C107.964 14.1 107.383 15.609 106.22 16.6808C105.087 17.7526 103.556 18.2885 101.628 18.2885H94.6126V6.4ZM101.628 16.2577C102.932 16.2577 103.967 15.9051 104.732 15.2C105.526 14.4667 105.923 13.4513 105.923 12.1538C105.923 10.9692 105.512 10.0526 104.69 9.40385C103.896 8.75513 102.861 8.43077 101.586 8.43077H96.6535V16.2577H101.628ZM100.948 22.3077H96.611V35H94.5701V20.2769H102.266L109.069 35H106.816L100.948 22.3077Z" fill="white"></path><path d="M73.2 19.8538C74.9008 19.2333 76.2189 18.5564 77.1543 17.8231C78.1181 17.0897 78.7843 16.2295 79.1528 15.2423C79.5496 14.2551 79.748 13.0987 79.748 11.7731C79.748 10.1936 79.3654 8.82564 78.6 7.66923C77.863 6.51282 76.8425 5.62436 75.5386 5.00384C74.2346 4.35513 72.7323 4.03077 71.0315 4.03077H59.0409V35H57V2H71.0315C73.1575 2 75.0283 2.40897 76.6441 3.22692C78.2598 4.04487 79.5213 5.18718 80.4284 6.65385C81.3354 8.09231 81.789 9.79872 81.789 11.7731C81.789 14.3397 81.2929 16.3564 80.3008 17.8231C79.337 19.2615 77.948 20.3051 76.1339 20.9538L84 35H81.5764L73.2 19.8538ZM62.6126 6.4H69.5858C71.5134 6.4 73.0583 6.92179 74.2205 7.96538C75.3827 8.98077 75.9638 10.3769 75.9638 12.1538C75.9638 14.1 75.3827 15.609 74.2205 16.6808C73.0866 17.7526 71.5559 18.2885 69.6283 18.2885H62.6126V6.4ZM69.6283 16.2577C70.9323 16.2577 71.9669 15.9051 72.7323 15.2C73.526 14.4667 73.9228 13.4513 73.9228 12.1538C73.9228 10.9692 73.5118 10.0526 72.6898 9.40385C71.8961 8.75513 70.8614 8.43077 69.5858 8.43077H64.6535V16.2577H69.6283ZM68.948 22.3077H64.611V35H62.5701V20.2769H70.2661L77.0693 35H74.8157L68.948 22.3077Z" fill="white"></path><path d="M46.9574 2H49V35H46.9574V2ZM41 2H43.0426V35H41V2Z" fill="white"></path><path d="M30.9535 4.03077H23.3643L17.4806 28.9923H15.3915L9.16667 4.03077H2.04651V35H0V2H10.7868L15.6047 21.2923C15.7752 21.9128 15.9031 22.6462 15.9884 23.4923C16.1021 24.3385 16.1873 25.0859 16.2442 25.7346C16.301 26.3833 16.3437 26.75 16.3721 26.8346H16.5C16.5284 26.75 16.5711 26.3833 16.6279 25.7346C16.6848 25.0577 16.7558 24.3103 16.8411 23.4923C16.9264 22.6462 17.0401 21.9269 17.1822 21.3346L21.7442 2H33V35H30.9535V4.03077ZM25.8798 21.8846C25.8798 21.2923 25.8941 20.5167 25.9225 19.5577C25.9509 18.5705 25.9935 17.541 26.0504 16.4692C26.1072 15.3692 26.1499 14.3115 26.1783 13.2962C26.2351 12.2526 26.2778 11.3641 26.3062 10.6308C26.363 9.86923 26.3915 9.37564 26.3915 9.15H26.1357C26.1357 9.40384 26.0788 9.86923 25.9651 10.5462C25.8798 11.1949 25.7661 11.9564 25.624 12.8308C25.5103 13.6769 25.3682 14.5231 25.1977 15.3692C25.0556 16.1872 24.9134 16.8641 24.7713 17.4L20.2946 35H12.4496L7.67442 17.4423C7.56072 17.0474 7.43282 16.4833 7.2907 15.75C7.14858 14.9885 7.00646 14.1846 6.86434 13.3385C6.72222 12.4641 6.59432 11.6603 6.48062 10.9269C6.36692 10.1654 6.28165 9.57308 6.22481 9.15H5.96899C5.99742 9.40384 6.02584 9.89744 6.05426 10.6308C6.11111 11.3641 6.15375 12.2385 6.18217 13.2538C6.23902 14.241 6.29587 15.2846 6.35271 16.3846C6.40956 17.4846 6.4522 18.5282 6.48062 19.5154C6.50904 20.5026 6.52326 21.3346 6.52326 22.0115V35H4.47674V6.95H6.94961L14.0271 32.9692H18.6744L25.2829 6.95H27.9264V35H25.8798V21.8846Z" fill="white"></path></svg> 