<?xml version="1.0" encoding="UTF-8"?> <svg xmlns="http://www.w3.org/2000/svg" id="m" fill="none"><defs></defs><path d="M 19.481 1.363 L 14.651 1.363 L 10.907 17.247 L 9.577 17.247 L 5.616 1.363 L 1.085 1.363 L 1.085 21.07 L -0.217 21.07 L -0.217 0.07 L 6.647 0.07 L 9.713 12.347 C 9.822 12.742 9.903 13.209 9.957 13.747 C 10.03 14.286 10.084 14.761 10.12 15.174 C 10.156 15.587 10.183 15.82 10.201 15.874 L 10.283 15.874 C 10.301 15.82 10.328 15.587 10.364 15.174 C 10.4 14.743 10.446 14.268 10.5 13.747 C 10.554 13.209 10.627 12.751 10.717 12.374 L 13.62 0.07 L 20.783 0.07 L 20.783 21.07 L 19.481 21.07 L 19.481 1.363 Z M 16.252 12.724 C 16.252 12.347 16.261 11.854 16.279 11.243 C 16.297 10.615 16.324 9.96 16.36 9.278 C 16.397 8.578 16.424 7.905 16.442 7.259 C 16.478 6.595 16.505 6.029 16.523 5.563 C 16.559 5.078 16.577 4.764 16.577 4.62 L 16.415 4.62 C 16.415 4.782 16.378 5.078 16.306 5.509 C 16.252 5.922 16.179 6.406 16.089 6.963 C 16.017 7.501 15.926 8.04 15.818 8.578 C 15.727 9.099 15.637 9.529 15.546 9.87 L 12.698 21.07 L 7.705 21.07 L 4.667 9.897 C 4.594 9.646 4.513 9.287 4.422 8.82 C 4.332 8.336 4.242 7.824 4.151 7.286 C 4.061 6.729 3.979 6.218 3.907 5.751 C 3.835 5.266 3.78 4.89 3.744 4.62 L 3.581 4.62 C 3.599 4.782 3.618 5.096 3.636 5.563 C 3.672 6.029 3.699 6.586 3.717 7.232 C 3.753 7.86 3.789 8.524 3.826 9.224 C 3.862 9.924 3.889 10.588 3.907 11.217 C 3.925 11.845 3.934 12.374 3.934 12.805 L 3.934 21.07 L 2.632 21.07 L 2.632 3.22 L 4.205 3.22 L 8.709 19.778 L 11.667 19.778 L 15.872 3.22 L 17.554 3.22 L 17.554 21.07 L 16.252 21.07 L 16.252 12.724 Z" style="fill: rgb(250, 48, 48);"></path></svg> 