<?xml version="1.0" encoding="UTF-8"?> <svg xmlns="http://www.w3.org/2000/svg" id="xis" fill="none"><defs></defs><path d="M 34.421 12.139 C 32.773 11.567 31.523 10.835 30.671 9.942 C 29.838 9.049 29.421 7.825 29.421 6.271 C 29.421 5.145 29.727 4.118 30.338 3.189 C 30.949 2.242 31.829 1.492 32.977 0.938 C 34.125 0.366 35.505 0.081 37.116 0.081 C 41.06 0.081 43.653 1.465 44.894 4.234 L 43.838 4.958 C 43.097 3.528 42.162 2.573 41.033 2.09 C 39.921 1.608 38.616 1.367 37.116 1.367 C 35.801 1.367 34.662 1.59 33.699 2.037 C 32.755 2.466 32.023 3.055 31.505 3.805 C 31.005 4.538 30.755 5.36 30.755 6.271 C 30.755 7.521 31.107 8.495 31.81 9.191 C 32.514 9.888 33.533 10.469 34.866 10.933 L 38.005 12.005 C 39.412 12.487 40.366 13.05 40.866 13.693 C 41.366 14.319 41.616 15.033 41.616 15.837 C 41.616 16.802 41.273 17.606 40.588 18.249 C 39.903 18.892 38.764 19.213 37.171 19.213 C 36.005 19.213 34.884 18.865 33.81 18.168 C 32.736 17.454 31.847 16.355 31.144 14.872 L 32.283 14.122 C 32.764 15.319 33.458 16.257 34.366 16.936 C 35.273 17.597 36.208 17.927 37.171 17.927 C 38.246 17.927 39.033 17.74 39.533 17.364 C 40.033 16.989 40.283 16.48 40.283 15.837 C 40.283 15.265 40.079 14.774 39.671 14.363 C 39.264 13.934 38.56 13.55 37.56 13.211 L 34.421 12.139 Z M 36.227 9.218 C 35.023 8.825 34.181 8.352 33.699 7.798 C 33.218 7.244 32.977 6.646 32.977 6.003 C 32.977 5.449 33.107 4.931 33.366 4.448 C 33.644 3.966 34.097 3.573 34.727 3.269 C 35.375 2.966 36.236 2.814 37.31 2.814 C 38.403 2.814 39.384 3.082 40.255 3.618 C 41.125 4.154 41.82 4.949 42.338 6.003 L 41.227 6.78 C 40.894 5.922 40.375 5.261 39.671 4.797 C 38.968 4.332 38.181 4.1 37.31 4.1 C 36.236 4.1 35.468 4.288 35.005 4.663 C 34.542 5.02 34.31 5.467 34.31 6.003 C 34.31 6.824 35.088 7.485 36.644 7.986 L 40.088 9.084 C 41.736 9.602 43.042 10.362 44.005 11.362 C 44.986 12.362 45.477 13.675 45.477 15.301 C 45.477 17.463 44.755 19.133 43.31 20.312 C 41.884 21.491 39.847 22.081 37.199 22.081 C 34.958 22.081 33.097 21.598 31.616 20.634 C 30.134 19.669 29.088 18.329 28.477 16.614 L 29.477 15.971 C 30.292 17.74 31.347 18.99 32.644 19.723 C 33.94 20.455 35.458 20.821 37.199 20.821 C 39.403 20.821 41.107 20.348 42.31 19.401 C 43.533 18.454 44.144 17.088 44.144 15.301 C 44.144 13.979 43.727 12.925 42.894 12.139 C 42.079 11.353 41.005 10.746 39.671 10.317 L 36.227 9.218 Z M 24.2 1.081 L 25.477 1.081 L 25.477 22.081 L 24.2 22.081 L 24.2 1.081 Z M 20.477 1.081 L 21.754 1.081 L 21.754 22.081 L 20.477 22.081 L 20.477 1.081 Z M 5.127 1.081 L 8.464 7.381 L 11.8 1.081 L 13.226 1.081 L 8.464 10.1 L 3.701 1.081 L 5.127 1.081 Z M 9.782 11.204 L 15.647 1.081 L 17.154 1.081 L 11.262 11.231 L 17.477 22.081 L 15.997 22.081 L 9.782 11.204 Z M 5.612 11.419 L -0.335 1.081 L 1.172 1.081 L 7.118 11.419 L 0.984 22.081 L -0.523 22.081 L 5.612 11.419 Z M 8.383 15.431 L 4.804 22.081 L 3.325 22.081 L 8.41 12.684 L 13.307 22.081 L 11.881 22.081 L 8.383 15.431 Z" style="fill: rgb(249, 40, 40);"></path></svg> 